<svg xmlns="http://www.w3.org/2000/svg" xmlns:xlink="http://www.w3.org/1999/xlink" viewBox="0 0 1498.2 1054.9"><defs><style>.cls-1{fill:url(#linear-gradient);}.cls-2{fill:url(#linear-gradient-2);}.cls-3{fill:url(#linear-gradient-3);}.cls-4{fill:#6883de;}</style><linearGradient id="linear-gradient" x1="17.34" y1="962.73" x2="17.34" y2="986.8" gradientUnits="userSpaceOnUse"><stop offset="0" stop-color="#ff636e"/><stop offset="1" stop-color="#f98d6c"/></linearGradient><linearGradient id="linear-gradient-2" x1="898.99" y1="3.24" x2="898.99" y2="27.3" xlink:href="#linear-gradient"/><linearGradient id="linear-gradient-3" x1="1480.86" y1="989.66" x2="1480.86" y2="1013.73" xlink:href="#linear-gradient"/></defs><title>hero-bg-decor-2</title><g id="Layer_2" data-name="Layer 2"><g id="Layer_1-2" data-name="Layer 1"><g id="bg_obj"><path class="cls-1" d="M0,976.83a17.34,17.34,0,1,1,17.34,17.34A17.36,17.36,0,0,1,0,976.83Zm7.75,0a9.59,9.59,0,1,0,9.59-9.59A9.6,9.6,0,0,0,7.75,976.83Z"/><path class="cls-2" d="M881.65,17.34A17.34,17.34,0,1,1,899,34.68,17.36,17.36,0,0,1,881.65,17.34Zm7.75,0A9.59,9.59,0,1,0,899,7.75,9.6,9.6,0,0,0,889.4,17.34Z"/><path class="cls-3" d="M1463.52,1003.76a17.34,17.34,0,1,1,17.34,17.35A17.36,17.36,0,0,1,1463.52,1003.76Zm7.75,0a9.59,9.59,0,1,0,9.59-9.59A9.6,9.6,0,0,0,1471.27,1003.76Z"/><path class="cls-4" d="M388.25,1053.14v-22.91a1.76,1.76,0,1,0-3.51,0v22.91a1.76,1.76,0,1,0,3.51,0Z"/><path class="cls-4" d="M398,1039.93H375a1.76,1.76,0,1,0,0,3.51H398a1.76,1.76,0,1,0,0-3.51Z"/></g></g></g></svg>